<svg width="146" height="189" viewBox="0 0 146 189" fill="none" xmlns="http://www.w3.org/2000/svg" role="img" aria-label="Лікар">
<path d="M35.3378 20.9877C29.8248 33.7399 29.216 49.2095 30.535 78.5984C31.8539 107.988 50.5045 137.943 50.5045 137.943L94.682 135.965C94.682 135.965 109.471 104.974 109.282 78.5984C109.096 52.224 111.094 36.2048 100.412 16.0054" fill="#3D2216"/>
<path d="M41.2345 20.9877C36.6683 33.7399 36.1653 49.2095 37.2558 78.5984C38.3499 107.988 53.794 137.943 53.794 137.943L90.3776 135.965C90.3776 135.965 102.623 104.974 102.468 78.5984C102.312 52.224 103.968 36.2048 95.1212 16.0054" fill="#2F180D"/>
<path d="M55.5948 88.5653L52.2993 100.804C52.2993 100.804 19.2185 113.137 14.9931 118.303C10.7721 123.466 7.12256 184.437 7.12256 184.437L142.014 185.943C142.014 185.943 137.279 122.46 129.301 117.171C120.267 111.187 91.4295 101.323 91.4295 101.323L86.1333 87.4916" fill="#F9BB8D"/>
<path d="M48.4789 101.065C48.4789 101.065 19.2184 113.137 14.993 118.302C10.772 123.465 3.40723 156.593 3.40723 156.593L140.321 157.092C140.321 157.092 135.725 121.896 127.745 116.608C118.711 110.622 94.6782 101.962 94.6782 101.962C94.6782 101.962 84.0158 132.441 71.8621 132.441C59.7128 132.441 48.4789 101.065 48.4789 101.065Z" fill="#45BABD"/>
<path d="M44.806 100.358C44.806 100.358 15.3667 113.908 11.2982 119.075C7.2319 124.237 0 188.905 0 188.905H146C146 188.905 139.67 122.015 131.986 116.726C123.286 110.741 98.0744 101.912 98.0744 101.912L72.9993 150.501L44.806 100.358Z" fill="white"/>
<path d="M87.5892 92.1396L86.2053 86.6522C86.2053 86.6522 74.1509 88.2149 70.697 88.0937C67.0599 87.9631 55.5953 88.5652 55.5953 88.5652L54.0588 93.8782C54.0588 93.8782 62.987 104.025 69.8328 103.776C76.6815 103.525 87.5892 92.1396 87.5892 92.1396Z" fill="#EBAB83"/>
<path d="M106.477 44.0213C104.604 41.5893 100.954 43.2118 99.8614 44.0979C99.9928 40.6331 100.056 35.9675 100.056 33.2764C100.056 14.2236 89.6048 2.54443 69.9185 2.54443C50.2322 2.54443 37.4618 14.1689 37.4618 35.1252C37.4618 37.3726 37.5603 41.344 37.7384 43.9921C36.6589 43.1418 35.2633 42.7622 33.4926 43.6242C29.3277 45.6519 32.3846 67.6965 36.2494 69.7453C37.8771 70.6125 39.0508 69.268 39.623 68.3468C42.9945 79.5794 46.2717 83.9982 48.3301 86.3689C53.5569 92.3906 65.642 99.7065 69.9185 99.7065C74.1943 99.7065 87.2676 91.4191 91.2324 86.3689C93.3922 83.6186 96.533 79.8779 99.2672 69.6461C99.8541 70.0373 101.575 70.192 102.442 69.7337C106.304 67.6877 110.604 49.3744 106.477 44.0213Z" fill="#F9BB8D"/>
<path d="M33.4926 43.625C33.4926 43.625 36.2619 41.6893 39.0129 47.138C41.7653 52.5853 41.4493 65.109 41.4493 65.109C41.4493 65.109 45.6543 59.6544 43.9113 47.5146C54.0241 40.1455 55.4036 32.7625 55.4036 32.7625C55.4036 32.7625 67.4317 42.2396 87.5895 45.2534C99.8059 47.0803 97.7637 63.1974 97.7637 63.1974C97.7637 63.1974 102.322 56.4129 99.8344 45.8789C100.246 44.795 102.717 39.0331 106.477 44.0213C106.633 41.29 105.697 31.8771 104.386 24.5299C103.072 17.1834 91.8733 0 71.1776 0C65.28 0 59.5918 0.416779 54.8372 3.5218C45.6521 4.80497 35.4356 17.6345 34.4911 23.9664C33.1729 32.8202 33.4926 43.625 33.4926 43.625Z" fill="#3D2216"/>
<path d="M123.751 142.449H97.1985V146.359H123.751V142.449Z" fill="#EDEDED"/>
<path d="M76.4541 131.122L96.2338 98.389L103.769 107.761L91.8376 118.499L94.1799 123.653L76.4541 131.122Z" fill="#00A5B0"/>
<path d="M67.4249 131.122L46.9599 97.6379L39.425 107.007L51.3575 117.746L49.0153 122.9L67.4249 131.122Z" fill="#00A5B0"/>
</svg>
