<svg width="54" height="54" viewBox="0 0 54 54" fill="none" xmlns="http://www.w3.org/2000/svg">
<path d="M24.6181 18.5958C25.1403 18.4379 25.683 18.3277 26.2421 18.2725C26.3761 14.2127 26.6216 5.1446 26.2226 2.88189C25.8171 0.582491 24.0304 -1.17095 22.7714 0.965879C21.4969 0.296912 19.4091 0.785176 19.4199 3.08307C19.4288 4.8876 23.0576 14.53 24.6181 18.5958ZM29.2236 18.4991C30.7364 14.7342 34.0743 6.28599 34.4736 4.02154C34.879 1.7221 33.7995 -0.536331 31.8857 1.04107C30.9169 -0.0235461 28.7875 -0.279232 28.0117 1.88385C27.4026 3.58386 27.5159 13.8962 27.5917 18.2462C28.1519 18.2787 28.6976 18.3636 29.2236 18.4991ZM21.9365 19.9639C22.3773 19.629 22.8514 19.336 23.3535 19.0909C22.0864 15.2173 19.2272 6.64645 18.081 4.66119C16.9136 2.63914 14.6348 1.60279 14.1826 4.04107C12.7561 3.84825 10.9607 5.02112 11.7568 7.17682C12.3811 8.8669 19.0733 16.6698 21.9365 19.9639ZM31.998 19.7872C34.7268 16.7441 40.6959 10.0047 41.8398 8.0235C43.0072 6.00138 42.7656 3.51024 40.4277 4.33795C39.8815 3.0062 37.9688 2.03753 36.5 3.80475C35.3538 5.18374 31.9679 14.7987 30.5351 18.9571C31.0521 19.1858 31.5411 19.4649 31.998 19.7872ZM19.9199 22.1417C20.2173 21.6806 20.5582 21.2508 20.9365 20.8565C18.4408 17.6743 12.7721 10.5312 11.0068 9.04986C9.21813 7.54921 6.72266 7.35478 7.13179 9.80084C5.72551 10.1076 4.43971 11.823 5.92476 13.5762C7.09481 14.9574 16.1347 20.0439 19.9199 22.1417ZM34.0986 21.9034C37.6871 19.9863 45.6468 15.6727 47.4052 14.1973C49.1939 12.6964 49.8189 10.2719 47.3388 10.2501C47.2809 8.81183 45.8147 7.24801 43.83 8.40631C42.2768 9.31313 35.7762 17.2307 33.0205 20.6329C33.4199 21.0197 33.7807 21.4452 34.0986 21.9034ZM35.3496 24.6299C39.3824 24.055 48.3231 22.7257 50.4785 21.9415C52.6725 21.1429 54.0893 19.0788 51.7666 18.21C52.2041 16.8387 51.3607 14.8668 49.0996 15.2764C47.3323 15.597 38.5384 20.8 34.7763 23.0596C35.0166 23.558 35.2092 24.0834 35.3496 24.6299ZM18.7783 24.8477C18.8989 24.3208 19.068 23.8129 19.2812 23.3282C15.8911 21.2175 8.01296 16.3737 5.83003 15.5792C3.63604 14.7807 1.22452 15.451 2.44527 17.6094C1.22867 18.3786 0.607398 20.4307 2.60249 21.5704C4.18615 22.4748 14.5627 24.1814 18.7783 24.8477ZM33.6113 26.6717C33.6113 23.0699 30.6915 20.15 27.0897 20.15C23.4879 20.15 20.5681 23.0699 20.5681 26.6717C20.5681 30.2735 23.4879 33.1933 27.0897 33.1933C30.6915 33.1933 33.6113 30.2735 33.6113 26.6717Z" fill="#FF8800"/>
<path d="M34.8182 26.6717C34.8182 30.9399 31.3579 34.4001 27.0897 34.4002C22.8215 34.4002 19.3612 30.9399 19.3612 26.6717C19.3612 22.4035 22.8215 18.9432 27.0897 18.9432V18.1434L26.6512 18.1541C22.2902 18.375 18.793 21.8722 18.5721 26.2332L18.5614 26.6717C18.5614 31.3817 22.3797 35.2 27.0897 35.2L27.5282 35.1892C32.0344 34.961 35.618 31.2346 35.618 26.6717L35.6072 26.2332C35.379 21.727 31.6526 18.1434 27.0897 18.1434V18.9432C31.3579 18.9432 34.8182 22.4035 34.8182 26.6717Z" fill="#FF8800"/>
</svg>
