<svg width="54" height="54" viewBox="0 0 54 54" fill="none" xmlns="http://www.w3.org/2000/svg">
<path d="M26.9816 18.1391C26.9816 18.1391 30.9595 5.54419 30.9596 2.87991C30.9596 0.796371 29.0716 -1.02139 26.9816 0.661366C25.5039 -0.12407 22.7261 -0.0189195 22.2222 2.00213C21.7183 4.02317 25.8546 18.1391 25.8546 18.1391H26.9816Z" fill="#FF8800"/>
<path d="M26.1575 34.9999C26.1575 34.9999 22.1795 47.5949 22.1795 50.2592C22.1795 52.3427 24.0675 54.1605 26.1575 52.4777C27.6352 53.2632 30.4129 53.158 30.9169 51.137C31.4208 49.1159 27.2845 34.9999 27.2845 34.9999H26.1575Z" fill="#FF8800"/>
<path d="M34.9999 26.9816C34.9999 26.9816 47.5949 30.9596 50.2592 30.9596C52.3427 30.9596 54.1605 29.0716 52.4777 26.9816C53.2632 25.5039 53.158 22.7262 51.137 22.2222C49.1159 21.7183 34.9999 25.8546 34.9999 25.8546V26.9816Z" fill="#FF8800"/>
<path d="M18.1391 26.1575C18.1391 26.1575 5.54419 22.1796 2.87991 22.1795C0.796371 22.1795 -1.02139 24.0675 0.661366 26.1575C-0.12407 27.6352 -0.0189195 30.413 2.00213 30.9169C4.02317 31.4208 18.1391 27.2845 18.1391 27.2845V26.1575Z" fill="#FF8800"/>
<path d="M30.4279 34.0765C30.4279 34.0765 33.2804 46.9731 34.6125 49.2804C35.6542 51.0848 38.1981 51.7151 39.1668 49.2128C40.8392 49.1541 43.1922 47.6742 42.6181 45.6719C42.044 43.6697 31.4039 33.513 31.4039 33.513L30.4279 34.0765Z" fill="#FF8800"/>
<path d="M22.7112 19.0626C22.7112 19.0626 19.8587 6.16608 18.5266 3.85874C17.4848 2.05434 14.9409 1.42408 13.9723 3.9264C12.2999 3.98503 9.94681 5.46499 10.5209 7.46723C11.095 9.46947 21.7352 19.6261 21.7352 19.6261L22.7112 19.0626Z" fill="#FF8800"/>
<path d="M33.6645 31.1416C33.6645 31.1416 42.5831 40.8841 44.8904 42.2163C46.6948 43.258 49.213 42.5319 48.8007 39.8805C50.2197 38.9935 51.5175 36.5353 50.0192 35.0884C48.5209 33.6415 34.228 30.1656 34.228 30.1656L33.6645 31.1416Z" fill="#FF8800"/>
<path d="M19.4747 21.9975C19.4747 21.9975 10.5561 12.255 8.24874 10.9229C6.44435 9.88111 3.92616 10.6072 4.33846 13.2586C2.9194 14.1456 1.62158 16.6038 3.11989 18.0508C4.61821 19.4977 18.9111 22.9735 18.9111 22.9735L19.4747 21.9975Z" fill="#FF8800"/>
<path d="M19.4746 31.1416C19.4746 31.1416 10.556 40.8841 8.2487 42.2163C6.44431 43.258 3.92611 42.5319 4.33841 39.8805C2.91936 38.9935 1.62153 36.5353 3.11985 35.0884C4.61816 33.6415 18.9111 30.1656 18.9111 30.1656L19.4746 31.1416Z" fill="#FF8800"/>
<path d="M33.6644 21.9975C33.6644 21.9975 42.583 12.255 44.8903 10.9229C46.6947 9.88111 49.2129 10.6072 48.8006 13.2586C50.2197 14.1456 51.5175 16.6038 50.0192 18.0508C48.5209 19.4977 34.2279 22.9735 34.2279 22.9735L33.6644 21.9975Z" fill="#FF8800"/>
<path d="M22.7112 34.0765C22.7112 34.0765 19.8587 46.9731 18.5266 49.2804C17.4848 51.0848 14.941 51.7151 13.9723 49.2128C12.2999 49.1541 9.94684 47.6742 10.5209 45.6719C11.0951 43.6697 21.7352 33.513 21.7352 33.513L22.7112 34.0765Z" fill="#FF8800"/>
<path d="M30.4279 19.0626C30.4279 19.0626 33.2804 6.16608 34.6125 3.85874C35.6543 2.05434 38.1981 1.42408 39.1668 3.9264C40.8392 3.98503 43.1923 5.46499 42.6182 7.46723C42.044 9.46947 31.4039 19.6261 31.4039 19.6261L30.4279 19.0626Z" fill="#FF8800"/>
<path d="M33.0095 26.5283C33.0095 22.9265 30.0896 20.0066 26.4878 20.0066C22.886 20.0066 19.9662 22.9265 19.9662 26.5283C19.9662 30.1301 22.886 33.0499 26.4878 33.0499C30.0896 33.0499 33.0095 30.1301 33.0095 26.5283Z" fill="#FF8800"/>
<path d="M34.2163 26.5283C34.2163 30.7964 30.756 34.2567 26.4878 34.2567C22.2196 34.2567 18.7594 30.7965 18.7594 26.5283C18.7594 22.2601 22.2197 18.7998 26.4878 18.7998V18L26.0494 18.0107C21.6883 18.2316 18.1912 21.7287 17.9703 26.0898L17.9596 26.5283C17.9596 31.2383 21.7778 35.0565 26.4878 35.0565L26.9263 35.0458C31.4326 34.8176 35.0161 31.0912 35.0161 26.5283L35.0054 26.0898C34.7772 21.5835 31.0508 18 26.4878 18V18.7998C30.756 18.7998 34.2163 22.2601 34.2163 26.5283Z" fill="#FF8800"/>
</svg>
