<svg width="1000" height="60" viewBox="0 0 1000 60" fill="none" xmlns="http://www.w3.org/2000/svg">
<g clip-path="url(#clip0_19_32)">
<path fill-rule="evenodd" clip-rule="evenodd" d="M789.158 13.5153C721.918 29.2284 697.941 29.0319 592.129 15.876C515.507 6.34922 468.595 1.02249 315.351 20.9686C209.358 34.7644 107.322 -4.42035 0 18.2486V55.5945C216.315 74.6919 411.205 4.82953 611.929 41.247C835.027 73.5924 848.654 61.4453 1000 25.0387V13.5153C931.196 -0.25067 873.078 -8.314 789.158 13.5153Z" fill="#007243"/>
<path fill-rule="evenodd" clip-rule="evenodd" d="M735.931 43.5152C695.203 40.1037 608 17.5016 467.5 34.5184C424.5 39.7263 342.806 48.293 214.5 38C176.515 34.9675 140.5 34.5184 89 46.5C66.078 51.8329 38 54 0 54V34.5184C14.139 31.9232 56.9156 21.5 107 21.5C202.034 20.1879 225.213 30.7312 291.617 29.6815C366.321 28.5151 392.842 16.481 493.714 17.5016C613.439 18.6971 689.24 43.0487 848.427 15.7854C916.589 4.09275 970.31 13.3347 1000 15.7854V38.0917C925.5 59.5 846.864 57.2465 735.931 43.5152Z" fill="#01673D"/>
</g>
<defs>
<clipPath id="clip0_19_32">
<rect width="1000" height="60" fill="white"/>
</clipPath>
</defs>
</svg>
