<svg width="1002" height="60" viewBox="0 0 1002 60" fill="none" xmlns="http://www.w3.org/2000/svg">
<g clip-path="url(#clip0_19_32)">
<path fill-rule="evenodd" clip-rule="evenodd" d="M790.158 13.5153C722.918 29.2284 698.941 29.0319 593.129 15.876C516.507 6.34922 469.595 1.02249 316.351 20.9686C210.358 34.7644 108.322 -4.42035 1 18.2486V55.5945C217.315 74.6919 412.205 4.82953 612.929 41.247C836.027 73.5924 849.654 61.4453 1001 25.0387V13.5153C932.196 -0.25067 874.078 -8.314 790.158 13.5153Z" fill="#007243"/>
<path d="M1 42.789C127 61.1678 167 15.1393 311 24.128C464.571 33.7141 471.998 47.6068 617.5 41.0934C742.998 35.4755 743.26 19.9477 810.5 31.5812C894.42 47.743 930 58.9206 1001 49.625M1 15.1393C322.146 -18.0421 394.776 51.0903 595.5 24.128C832.385 -7.69172 849.654 14.1392 1001 41.0934" stroke="#009D47"/>
<path d="M1 21.6125C86.5 15.5403 100.291 27.5672 203.5 40.7577C377 62.9316 464.356 28.3016 537 36.8447C880 77.1823 934.5 26.4098 1001 6.84465" stroke="#009D47"/>
</g>
<defs>
<clipPath id="clip0_19_32">
<rect width="1002" height="60" fill="white"/>
</clipPath>
</defs>
</svg>
