<svg width="188" height="188" viewBox="0 0 188 188" fill="none" xmlns="http://www.w3.org/2000/svg">
<circle cx="94" cy="94" r="94" fill="url(#paint0_radial_8_1350)"/>
<path d="M95.3338 66.7126C95.3338 66.7126 108.209 25.9454 108.21 17.3216C108.21 10.5777 102.099 4.69399 95.3338 10.1407C90.5508 7.59841 81.5597 7.93876 79.9286 14.4805C78.2975 21.0222 91.6858 66.7126 91.6858 66.7126H95.3338Z" fill="#FF8800"/>
<path d="M92.6662 121.287C92.6662 121.287 79.7905 162.055 79.7904 170.678C79.7904 177.422 85.9012 183.306 92.6662 177.859C97.4492 180.402 106.44 180.061 108.071 173.52C109.702 166.978 96.3142 121.287 96.3142 121.287H92.6662Z" fill="#FF8800"/>
<path d="M121.287 95.3338C121.287 95.3338 162.055 108.21 170.678 108.21C177.422 108.21 183.306 102.099 177.859 95.3338C180.402 90.5508 180.061 81.5597 173.52 79.9286C166.978 78.2975 121.287 91.6858 121.287 91.6858V95.3338Z" fill="#FF8800"/>
<path d="M66.7126 92.6662C66.7126 92.6662 25.9454 79.7905 17.3216 79.7905C10.5777 79.7904 4.69399 85.9013 10.1407 92.6662C7.59841 97.4492 7.93876 106.44 14.4805 108.071C21.0222 109.702 66.7126 96.3142 66.7126 96.3142V92.6662Z" fill="#FF8800"/>
<path d="M106.489 118.299C106.489 118.299 115.721 160.042 120.033 167.51C123.405 173.351 131.639 175.391 134.774 167.291C140.188 167.101 147.804 162.311 145.946 155.83C144.088 149.35 109.648 116.475 109.648 116.475L106.489 118.299Z" fill="#FF8800"/>
<path d="M81.5113 69.7016C81.5113 69.7016 72.2784 27.9583 67.9666 20.4899C64.5946 14.6495 56.3606 12.6095 53.2254 20.7089C47.8121 20.8987 40.1957 25.689 42.054 32.1698C43.9123 38.6507 78.3521 71.5256 78.3521 71.5256L81.5113 69.7016Z" fill="#FF8800"/>
<path d="M116.965 108.799C116.965 108.799 145.832 140.333 153.301 144.645C159.141 148.017 167.292 145.667 165.957 137.085C170.551 134.214 174.751 126.257 169.902 121.574C165.052 116.89 118.789 105.64 118.789 105.64L116.965 108.799Z" fill="#FF8800"/>
<path d="M71.0353 79.2013C71.0353 79.2013 42.1678 47.667 34.6994 43.3551C28.859 39.9831 20.7081 42.3334 22.0427 50.9153C17.4495 53.7864 13.2487 61.7431 18.0984 66.4265C22.9482 71.1099 69.2114 82.3605 69.2114 82.3605L71.0353 79.2013Z" fill="#FF8800"/>
<path d="M71.0352 108.799C71.0352 108.799 42.1676 140.333 34.6993 144.645C28.8589 148.017 20.708 145.667 22.0425 137.085C17.4493 134.214 13.2486 126.257 18.0983 121.574C22.948 116.89 69.2112 105.64 69.2112 105.64L71.0352 108.799Z" fill="#FF8800"/>
<path d="M116.965 79.2013C116.965 79.2013 145.832 47.667 153.301 43.3551C159.141 39.9831 167.292 42.3334 165.957 50.9153C170.55 53.7864 174.751 61.7431 169.902 66.4265C165.052 71.1099 118.789 82.3605 118.789 82.3605L116.965 79.2013Z" fill="#FF8800"/>
<path d="M81.5114 118.299C81.5114 118.299 72.2785 160.042 67.9667 167.51C64.5947 173.351 56.3607 175.391 53.2255 167.291C47.8122 167.101 40.1958 162.311 42.0541 155.83C43.9124 149.35 78.3522 116.475 78.3522 116.475L81.5114 118.299Z" fill="#FF8800"/>
<path d="M106.489 69.7016C106.489 69.7016 115.722 27.9583 120.033 20.4899C123.405 14.6495 131.639 12.6095 134.775 20.7089C140.188 20.8987 147.804 25.689 145.946 32.1698C144.088 38.6507 109.648 71.5256 109.648 71.5256L106.489 69.7016Z" fill="#FF8800"/>
<path d="M114.845 93.8664C114.845 82.2081 105.394 72.7572 93.7355 72.7572C82.0773 72.7572 72.6264 82.2081 72.6264 93.8664C72.6264 105.525 82.0773 114.975 93.7355 114.975C105.394 114.975 114.845 105.525 114.845 93.8664Z" fill="#FF8800"/>
<path d="M118.751 93.8664C118.751 107.682 107.551 118.882 93.7355 118.882C79.9203 118.882 68.7201 107.682 68.7201 93.8664C68.7201 80.0512 79.9203 68.8509 93.7355 68.8509V66.2621L92.3163 66.2969C78.2005 67.0117 66.881 78.3314 66.1661 92.4471L66.1313 93.8664C66.1313 109.112 78.4902 121.471 93.7355 121.471L95.1548 121.436C109.741 120.697 121.34 108.636 121.34 93.8664L121.305 92.4471C120.566 77.8614 108.505 66.2622 93.7355 66.2621V68.8509C107.551 68.8509 118.751 80.0512 118.751 93.8664Z" fill="#FF8800"/>
<ellipse cx="93.9146" cy="94.0029" rx="19.9147" ry="20.0029" fill="#FFC805"/>
<circle cx="94" cy="94" r="26.5" stroke="#FF8800" stroke-width="3"/>
<defs>
<radialGradient id="paint0_radial_8_1350" cx="0" cy="0" r="1" gradientUnits="userSpaceOnUse" gradientTransform="translate(94 94) rotate(90) scale(94)">
<stop stop-color="#0FD583"/>
<stop offset="1" stop-color="#007D49"/>
</radialGradient>
</defs>
</svg>
