<svg width="223" height="200" viewBox="0 0 223 200" fill="none" xmlns="http://www.w3.org/2000/svg" role="img" aria-label="Арніка Медичний Центр">
<path d="M201.203 176.672C194.751 185.527 187.023 193.393 178.29 200H44.1855C35.4525 193.393 27.7243 185.527 21.2725 176.672H201.203ZM111.237 0C172.672 0 222.475 49.8026 222.476 111.237C222.476 134.078 215.589 155.309 203.783 172.973H18.6924C6.88609 155.309 0 134.078 0 111.237C0.000136068 49.8027 49.8027 0.000136104 111.237 0Z" fill="url(#paint0_radial_4_737)"/>
<circle cx="111.238" cy="113.229" r="18.4147" fill="#FFC805" stroke="#FF8800" stroke-width="3"/>
<mask id="path-3-outside-1_4_737" maskUnits="userSpaceOnUse" x="7.67316" y="11.3714" width="207" height="108" fill="black">
<rect fill="white" x="7.67316" y="11.3714" width="207" height="108"/>
<path d="M200.569 105.002C209.348 105.002 217.007 107.782 209.916 110.859C213.226 113.034 212.783 117.124 204.267 117.866C196.526 118.54 146.697 114.156 137.673 113.352C137.639 112.467 137.562 111.593 137.443 110.732C145.294 109.874 190.331 105.002 200.569 105.002ZM18.1087 105.065C25.9676 104.38 77.2305 109.515 85.0921 110.311C84.9384 111.304 84.8421 112.315 84.8021 113.341C76.593 114.06 31.9907 117.928 21.8079 117.928C13.0289 117.928 5.36928 115.148 12.4593 112.072C9.14996 109.896 9.59319 105.807 18.1087 105.065ZM190.873 71.8831C199.123 68.8806 208.191 71.4024 203.6 79.5189C208.174 82.4109 210.511 90.1265 203.009 94.4114C196.16 98.3227 145.576 106.228 136.808 107.576C136.479 106.337 136.062 105.134 135.564 103.973C142.777 99.4435 181.323 75.3592 190.873 71.8831ZM17.9417 81.7513C16.2964 76.5954 19.4655 69.1828 27.9671 70.723C35.7601 72.1349 79.926 98.8098 87.2357 103.247C86.7092 104.38 86.26 105.555 85.8958 106.767C77.7665 105.643 32.3778 99.2739 22.7825 95.7816C14.5329 92.7789 9.20745 85.0177 17.9417 81.7513ZM171.643 47.0843C178.368 41.4412 187.752 40.7087 186.214 49.9056C191.502 51.0587 196.337 57.5104 190.752 64.1028C185.621 70.1599 140.237 95.173 132.899 99.1966C132.18 98.1735 131.391 97.2038 130.537 96.2943C135.476 89.942 163.802 53.6644 171.643 47.0843ZM34.8655 51.8743C35.083 46.4668 40.596 40.5851 48.0579 44.9398C54.8625 48.9111 86.9423 88.6879 92.5433 95.6673C91.6412 96.568 90.8035 97.5333 90.0384 98.556C82.451 94.5427 42.395 73.2407 34.6165 66.7142C27.8913 61.0711 25.5408 51.9564 34.8655 51.8743ZM144.999 30.4466C149.389 22.8437 157.957 18.9468 159.658 28.1155C165.021 27.3909 171.77 31.7989 168.777 39.9036C166.022 47.3626 131.823 86.505 126.388 92.6985C125.373 91.988 124.306 91.3462 123.193 90.7816C125.631 83.217 139.874 39.3235 144.999 30.4466ZM60.8792 29.39C62.933 24.3828 70.1252 20.7416 75.6478 27.386C80.704 33.4697 97.3574 82.1852 100.134 90.3694C98.984 90.902 97.879 91.5148 96.8255 92.2005C91.2407 86.026 60.6663 52.0768 55.5696 43.2493C51.1801 35.6464 52.0887 26.2779 60.8792 29.39ZM114.251 24.2073C115.776 15.5616 122.494 8.96883 127.228 17.0032C132.02 14.4878 139.87 16.3215 139.829 24.9612C139.792 32.8381 121.392 80.4879 118.142 88.8441C116.923 88.5154 115.669 88.2715 114.387 88.1194C114.068 79.5273 112.489 34.2044 114.251 24.2073ZM92.9173 17.5511C96.5598 13.5483 104.565 12.5872 107.482 20.72C110.128 28.0987 109.157 78.6971 108.954 88.0306C107.648 88.1423 106.368 88.3491 105.122 88.6439C101.76 80.3692 84.9413 38.7035 83.1878 28.7591C81.6633 20.1135 85.7215 11.6206 92.9173 17.5511Z"/>
</mask>
<path d="M200.569 105.002C209.348 105.002 217.007 107.782 209.916 110.859C213.226 113.034 212.783 117.124 204.267 117.866C196.526 118.54 146.697 114.156 137.673 113.352C137.639 112.467 137.562 111.593 137.443 110.732C145.294 109.874 190.331 105.002 200.569 105.002ZM18.1087 105.065C25.9676 104.38 77.2305 109.515 85.0921 110.311C84.9384 111.304 84.8421 112.315 84.8021 113.341C76.593 114.06 31.9907 117.928 21.8079 117.928C13.0289 117.928 5.36928 115.148 12.4593 112.072C9.14996 109.896 9.59319 105.807 18.1087 105.065ZM190.873 71.8831C199.123 68.8806 208.191 71.4024 203.6 79.5189C208.174 82.4109 210.511 90.1265 203.009 94.4114C196.16 98.3227 145.576 106.228 136.808 107.576C136.479 106.337 136.062 105.134 135.564 103.973C142.777 99.4435 181.323 75.3592 190.873 71.8831ZM17.9417 81.7513C16.2964 76.5954 19.4655 69.1828 27.9671 70.723C35.7601 72.1349 79.926 98.8098 87.2357 103.247C86.7092 104.38 86.26 105.555 85.8958 106.767C77.7665 105.643 32.3778 99.2739 22.7825 95.7816C14.5329 92.7789 9.20745 85.0177 17.9417 81.7513ZM171.643 47.0843C178.368 41.4412 187.752 40.7087 186.214 49.9056C191.502 51.0587 196.337 57.5104 190.752 64.1028C185.621 70.1599 140.237 95.173 132.899 99.1966C132.18 98.1735 131.391 97.2038 130.537 96.2943C135.476 89.942 163.802 53.6644 171.643 47.0843ZM34.8655 51.8743C35.083 46.4668 40.596 40.5851 48.0579 44.9398C54.8625 48.9111 86.9423 88.6879 92.5433 95.6673C91.6412 96.568 90.8035 97.5333 90.0384 98.556C82.451 94.5427 42.395 73.2407 34.6165 66.7142C27.8913 61.0711 25.5408 51.9564 34.8655 51.8743ZM144.999 30.4466C149.389 22.8437 157.957 18.9468 159.658 28.1155C165.021 27.3909 171.77 31.7989 168.777 39.9036C166.022 47.3626 131.823 86.505 126.388 92.6985C125.373 91.988 124.306 91.3462 123.193 90.7816C125.631 83.217 139.874 39.3235 144.999 30.4466ZM60.8792 29.39C62.933 24.3828 70.1252 20.7416 75.6478 27.386C80.704 33.4697 97.3574 82.1852 100.134 90.3694C98.984 90.902 97.879 91.5148 96.8255 92.2005C91.2407 86.026 60.6663 52.0768 55.5696 43.2493C51.1801 35.6464 52.0887 26.2779 60.8792 29.39ZM114.251 24.2073C115.776 15.5616 122.494 8.96883 127.228 17.0032C132.02 14.4878 139.87 16.3215 139.829 24.9612C139.792 32.8381 121.392 80.4879 118.142 88.8441C116.923 88.5154 115.669 88.2715 114.387 88.1194C114.068 79.5273 112.489 34.2044 114.251 24.2073ZM92.9173 17.5511C96.5598 13.5483 104.565 12.5872 107.482 20.72C110.128 28.0987 109.157 78.6971 108.954 88.0306C107.648 88.1423 106.368 88.3491 105.122 88.6439C101.76 80.3692 84.9413 38.7035 83.1878 28.7591C81.6633 20.1135 85.7215 11.6206 92.9173 17.5511Z" fill="#FF8800"/>
<path d="M111.237 87.0524C125.697 87.0524 137.509 98.6423 138.265 113.229H136.223C135.469 99.793 124.572 89.1345 111.237 89.1345C97.9029 89.1347 87.0063 99.7931 86.2528 113.229H84.2108C84.9667 98.6425 96.7775 87.0526 111.237 87.0524Z" fill="#FF8800" filter="url(#filter0_d_4_737)"/>
<path d="M174.038 163.517V165.102H163.697V163.517L166.644 163.12C167.037 163.045 167.323 162.969 167.502 162.894C167.68 162.781 167.841 162.535 167.984 162.158C168.127 161.78 168.323 161.176 168.573 160.346L178.807 126.595H183.415L193.702 160.346C193.952 161.176 194.148 161.78 194.291 162.158C194.434 162.535 194.595 162.781 194.773 162.894C194.988 162.969 195.274 163.045 195.631 163.12L198.578 163.517V165.102H183.79V163.517L186.737 163.12C187.308 163.045 187.612 162.894 187.647 162.667C187.719 162.403 187.558 161.629 187.165 160.346L185.129 153.324H172.752L170.663 160.346C170.306 161.629 170.145 162.403 170.18 162.667C170.216 162.894 170.52 163.045 171.091 163.12L174.038 163.517ZM173.395 151.342H184.54L179.021 132.541L173.395 151.342Z" fill="white"/>
<path d="M133.017 139.627V138.131H143.273V151.481L152.675 142.507C153.921 141.332 154.58 140.62 154.651 140.37C154.758 140.121 154.508 139.961 153.903 139.89L150.965 139.516V138.02H161.916V139.516L158.978 139.89C158.657 139.925 158.39 139.997 158.176 140.103C157.963 140.21 157.66 140.442 157.268 140.798C156.877 141.118 156.253 141.688 155.399 142.507L150.271 147.421L157.856 160.615C158.354 161.434 158.728 162.022 158.978 162.378C159.227 162.699 159.458 162.912 159.672 163.019C159.921 163.09 160.224 163.162 160.58 163.233L162.402 163.607V165.102H153.316L145.891 151.588L143.273 154.099V160.615C143.273 161.826 143.327 162.556 143.433 162.805C143.54 163.019 143.879 163.162 144.448 163.233L147.386 163.607V165.102H133.017V163.607L135.955 163.233C136.525 163.162 136.863 163.019 136.97 162.805C137.077 162.556 137.13 161.826 137.13 160.615V142.618C137.13 141.407 137.077 140.695 136.97 140.481C136.863 140.232 136.525 140.072 135.955 140.001L133.017 139.627Z" fill="white"/>
<path d="M116.959 139.516V138.02H127.215V160.615C127.215 161.826 127.269 162.556 127.376 162.806C127.482 163.019 127.821 163.162 128.39 163.233L131.328 163.607V165.102H116.959V163.607L119.897 163.233C120.467 163.162 120.805 163.019 120.912 162.806C121.019 162.556 121.072 161.826 121.072 160.615V142.507C121.072 141.296 121.019 140.584 120.912 140.371C120.805 140.121 120.467 139.961 119.897 139.89L116.959 139.516Z" fill="white"/>
<path d="M115.14 163.607V165.102H100.771V163.607L103.709 163.233C104.279 163.162 104.617 163.019 104.724 162.805C104.831 162.556 104.885 161.826 104.885 160.615V147.154C104.885 144.697 104.511 142.917 103.763 141.813C103.051 140.673 101.982 140.103 100.558 140.103C99.9524 140.103 99.2401 140.264 98.4211 140.584C97.6376 140.869 96.8364 141.403 96.0173 142.187C95.2339 142.97 94.5395 144.127 93.9341 145.659V160.615C93.9341 161.826 93.9875 162.556 94.0943 162.805C94.2012 163.019 94.5395 163.162 95.1093 163.233L98.0472 163.607V165.102H83.6781V163.607L86.616 163.233C87.1858 163.162 87.5241 163.019 87.6309 162.805C87.7378 162.556 87.7912 161.826 87.7912 160.615V142.507C87.7912 141.296 87.7378 140.584 87.6309 140.371C87.5241 140.121 87.1858 139.961 86.616 139.89L83.6781 139.516V138.02H93.6136V142.721C94.6463 140.905 95.9639 139.587 97.5664 138.768C99.2045 137.913 100.843 137.486 102.481 137.486C105.116 137.486 107.199 138.323 108.73 139.997C110.262 141.67 111.027 144.038 111.027 147.101V160.615C111.027 161.826 111.081 162.556 111.188 162.805C111.294 163.019 111.633 163.162 112.203 163.233L115.14 163.607Z" fill="white"/>
<path d="M60.1204 139.516V138.02H70.0559V142.4C72.2281 139.124 74.8099 137.486 77.8013 137.486C78.9052 137.486 79.9735 137.842 81.0063 138.554C82.039 139.231 82.8936 140.513 83.5703 142.4L78.8162 144.964C78.3176 143.504 77.73 142.525 77.0534 142.026C76.4124 141.492 75.718 141.225 74.9702 141.225C74.1867 141.225 73.4211 141.474 72.6733 141.973C71.9254 142.472 71.1598 143.397 70.3764 144.751V160.615C70.3764 161.826 70.4298 162.556 70.5366 162.805C70.6434 163.019 70.9817 163.162 71.5515 163.233L75.5578 163.607V165.102H60.1204V163.607L63.0583 163.233C63.6281 163.162 63.9664 163.019 64.0732 162.805C64.18 162.556 64.2334 161.826 64.2334 160.615V142.507C64.2334 141.296 64.18 140.584 64.0732 140.371C63.9664 140.121 63.6281 139.961 63.0583 139.89L60.1204 139.516Z" fill="white"/>
<path d="M34.2384 163.517V165.102H23.8976V163.517L26.8444 163.12C27.2374 163.045 27.5231 162.969 27.7017 162.894C27.8803 162.781 28.0411 162.535 28.1839 162.158C28.3268 161.78 28.5233 161.176 28.7733 160.345L39.007 126.595H43.6148L53.902 160.345C54.1521 161.176 54.3485 161.78 54.4914 162.158C54.6343 162.535 54.795 162.781 54.9736 162.894C55.1879 162.969 55.4737 163.045 55.8309 163.12L58.7778 163.517V165.102H43.9899V163.517L46.9367 163.12C47.5082 163.045 47.8119 162.894 47.8476 162.667C47.919 162.403 47.7583 161.629 47.3654 160.345L45.3293 153.323H32.9525L30.8629 160.345C30.5057 161.629 30.345 162.403 30.3807 162.667C30.4164 162.894 30.72 163.045 31.2915 163.12L34.2384 163.517ZM33.5955 151.341H44.74L39.2213 132.541L33.5955 151.341Z" fill="white"/>
<defs>
<filter id="filter0_d_4_737" x="69.2108" y="72.0524" width="84.0537" height="56.1768" filterUnits="userSpaceOnUse" color-interpolation-filters="sRGB">
<feFlood flood-opacity="0" result="BackgroundImageFix"/>
<feColorMatrix in="SourceAlpha" type="matrix" values="0 0 0 0 0 0 0 0 0 0 0 0 0 0 0 0 0 0 127 0" result="hardAlpha"/>
<feOffset/><feGaussianBlur stdDeviation="7.5"/>
<feComposite in2="hardAlpha" operator="out"/>
<feColorMatrix type="matrix" values="0 0 0 0 0.494118 0 0 0 0 1 0 0 0 0 0.792157 0 0 0 1 0"/>
<feBlend mode="normal" in2="BackgroundImageFix" result="effect1_dropShadow_4_737"/>
<feBlend mode="normal" in="SourceGraphic" in2="effect1_dropShadow_4_737" result="shape"/>
</filter>
<radialGradient id="paint0_radial_4_737" cx="0" cy="0" r="1" gradientUnits="userSpaceOnUse" gradientTransform="translate(111.238 111.238) rotate(90) scale(111.238 111.238)">
<stop stop-color="#00E385"/>
<stop offset="1" stop-color="#007D49"/>
</radialGradient>
</defs>
</svg>
