<svg width="223" height="200" viewBox="0 0 223 200" fill="none" xmlns="http://www.w3.org/2000/svg">
<path d="M201.203 176.672C194.751 185.527 187.023 193.393 178.29 200H44.1855C35.4525 193.393 27.7243 185.527 21.2725 176.672H201.203ZM111.237 0C172.672 0 222.475 49.8026 222.476 111.237C222.476 134.078 215.589 155.309 203.783 172.973H18.6924C6.88609 155.309 0 134.078 0 111.237C0.000136068 49.8027 49.8027 0.000136104 111.237 0Z" fill="url(#paint0_radial_4_737)"/>
<circle cx="111.238" cy="113.229" r="18.4147" fill="#FFC805" stroke="#FF8800" stroke-width="3"/>
<mask id="path-3-outside-1_4_737" maskUnits="userSpaceOnUse" x="7.67316" y="11.3714" width="207" height="108" fill="black">
<rect fill="white" x="7.67316" y="11.3714" width="207" height="108"/>
<path d="M200.569 105.002C209.348 105.002 217.007 107.782 209.916 110.859C213.226 113.034 212.783 117.124 204.267 117.866C196.526 118.54 146.697 114.156 137.673 113.352C137.639 112.467 137.562 111.593 137.443 110.732C145.294 109.874 190.331 105.002 200.569 105.002ZM18.1087 105.065C25.9676 104.38 77.2305 109.515 85.0921 110.311C84.9384 111.304 84.8421 112.315 84.8021 113.341C76.593 114.06 31.9907 117.928 21.8079 117.928C13.0289 117.928 5.36928 115.148 12.4593 112.072C9.14996 109.896 9.59319 105.807 18.1087 105.065ZM190.873 71.8831C199.123 68.8806 208.191 71.4024 203.6 79.5189C208.174 82.4109 210.511 90.1265 203.009 94.4114C196.16 98.3227 145.576 106.228 136.808 107.576C136.479 106.337 136.062 105.134 135.564 103.973C142.777 99.4435 181.323 75.3592 190.873 71.8831ZM17.9417 81.7513C16.2964 76.5954 19.4655 69.1828 27.9671 70.723C35.7601 72.1349 79.926 98.8098 87.2357 103.247C86.7092 104.38 86.26 105.555 85.8958 106.767C77.7665 105.643 32.3778 99.2739 22.7825 95.7816C14.5329 92.7789 9.20745 85.0177 17.9417 81.7513ZM171.643 47.0843C178.368 41.4412 187.752 40.7087 186.214 49.9056C191.502 51.0587 196.337 57.5104 190.752 64.1028C185.621 70.1599 140.237 95.173 132.899 99.1966C132.18 98.1735 131.391 97.2038 130.537 96.2943C135.476 89.942 163.802 53.6644 171.643 47.0843ZM34.8655 51.8743C35.083 46.4668 40.596 40.5851 48.0579 44.9398C54.8625 48.9111 86.9423 88.6879 92.5433 95.6673C91.6412 96.568 90.8035 97.5333 90.0384 98.556C82.451 94.5427 42.395 73.2407 34.6165 66.7142C27.8913 61.0711 25.5408 51.9564 34.8655 51.8743ZM144.999 30.4466C149.389 22.8437 157.957 18.9468 159.658 28.1155C165.021 27.3909 171.77 31.7989 168.777 39.9036C166.022 47.3626 131.823 86.505 126.388 92.6985C125.373 91.988 124.306 91.3462 123.193 90.7816C125.631 83.217 139.874 39.3235 144.999 30.4466ZM60.8792 29.39C62.933 24.3828 70.1252 20.7416 75.6478 27.386C80.704 33.4697 97.3574 82.1852 100.134 90.3694C98.984 90.902 97.879 91.5148 96.8255 92.2005C91.2407 86.026 60.6663 52.0768 55.5696 43.2493C51.1801 35.6464 52.0887 26.2779 60.8792 29.39ZM114.251 24.2073C115.776 15.5616 122.494 8.96883 127.228 17.0032C132.02 14.4878 139.87 16.3215 139.829 24.9612C139.792 32.8381 121.392 80.4879 118.142 88.8441C116.923 88.5154 115.669 88.2715 114.387 88.1194C114.068 79.5273 112.489 34.2044 114.251 24.2073ZM92.9173 17.5511C96.5598 13.5483 104.565 12.5872 107.482 20.72C110.128 28.0987 109.157 78.6971 108.954 88.0306C107.648 88.1423 106.368 88.3491 105.122 88.6439C101.76 80.3692 84.9413 38.7035 83.1878 28.7591C81.6633 20.1135 85.7215 11.6206 92.9173 17.5511Z"/>
</mask>
<path d="M200.569 105.002C209.348 105.002 217.007 107.782 209.916 110.859C213.226 113.034 212.783 117.124 204.267 117.866C196.526 118.54 146.697 114.156 137.673 113.352C137.639 112.467 137.562 111.593 137.443 110.732C145.294 109.874 190.331 105.002 200.569 105.002ZM18.1087 105.065C25.9676 104.38 77.2305 109.515 85.0921 110.311C84.9384 111.304 84.8421 112.315 84.8021 113.341C76.593 114.06 31.9907 117.928 21.8079 117.928C13.0289 117.928 5.36928 115.148 12.4593 112.072C9.14996 109.896 9.59319 105.807 18.1087 105.065ZM190.873 71.8831C199.123 68.8806 208.191 71.4024 203.6 79.5189C208.174 82.4109 210.511 90.1265 203.009 94.4114C196.16 98.3227 145.576 106.228 136.808 107.576C136.479 106.337 136.062 105.134 135.564 103.973C142.777 99.4435 181.323 75.3592 190.873 71.8831ZM17.9417 81.7513C16.2964 76.5954 19.4655 69.1828 27.9671 70.723C35.7601 72.1349 79.926 98.8098 87.2357 103.247C86.7092 104.38 86.26 105.555 85.8958 106.767C77.7665 105.643 32.3778 99.2739 22.7825 95.7816C14.5329 92.7789 9.20745 85.0177 17.9417 81.7513ZM171.643 47.0843C178.368 41.4412 187.752 40.7087 186.214 49.9056C191.502 51.0587 196.337 57.5104 190.752 64.1028C185.621 70.1599 140.237 95.173 132.899 99.1966C132.18 98.1735 131.391 97.2038 130.537 96.2943C135.476 89.942 163.802 53.6644 171.643 47.0843ZM34.8655 51.8743C35.083 46.4668 40.596 40.5851 48.0579 44.9398C54.8625 48.9111 86.9423 88.6879 92.5433 95.6673C91.6412 96.568 90.8035 97.5333 90.0384 98.556C82.451 94.5427 42.395 73.2407 34.6165 66.7142C27.8913 61.0711 25.5408 51.9564 34.8655 51.8743ZM144.999 30.4466C149.389 22.8437 157.957 18.9468 159.658 28.1155C165.021 27.3909 171.77 31.7989 168.777 39.9036C166.022 47.3626 131.823 86.505 126.388 92.6985C125.373 91.988 124.306 91.3462 123.193 90.7816C125.631 83.217 139.874 39.3235 144.999 30.4466ZM60.8792 29.39C62.933 24.3828 70.1252 20.7416 75.6478 27.386C80.704 33.4697 97.3574 82.1852 100.134 90.3694C98.984 90.902 97.879 91.5148 96.8255 92.2005C91.2407 86.026 60.6663 52.0768 55.5696 43.2493C51.1801 35.6464 52.0887 26.2779 60.8792 29.39ZM114.251 24.2073C115.776 15.5616 122.494 8.96883 127.228 17.0032C132.02 14.4878 139.87 16.3215 139.829 24.9612C139.792 32.8381 121.392 80.4879 118.142 88.8441C116.923 88.5154 115.669 88.2715 114.387 88.1194C114.068 79.5273 112.489 34.2044 114.251 24.2073ZM92.9173 17.5511C96.5598 13.5483 104.565 12.5872 107.482 20.72C110.128 28.0987 109.157 78.6971 108.954 88.0306C107.648 88.1423 106.368 88.3491 105.122 88.6439C101.76 80.3692 84.9413 38.7035 83.1878 28.7591C81.6633 20.1135 85.7215 11.6206 92.9173 17.5511Z" fill="#FF8800"/>
<path d="M200.569 105.002V104.002V104.002V105.002ZM209.916 110.859L209.518 109.941L207.821 110.678L209.367 111.694L209.916 110.859ZM204.267 117.866L204.354 118.862L204.354 118.862L204.267 117.866ZM137.673 113.352L136.674 113.39L136.708 114.27L137.584 114.348L137.673 113.352ZM137.443 110.732L137.334 109.738L136.311 109.849L136.452 110.869L137.443 110.732ZM18.1087 105.065L18.0219 104.069H18.0219L18.1087 105.065ZM85.0921 110.311L86.0803 110.464L86.2416 109.422L85.1928 109.316L85.0921 110.311ZM84.8021 113.341L84.8893 114.337L85.767 114.26L85.8013 113.38L84.8021 113.341ZM21.8079 117.928L21.8079 118.928H21.8079L21.8079 117.928ZM12.4593 112.072L12.8574 112.989L14.5547 112.252L13.0086 111.236L12.4593 112.072ZM190.873 71.8831L190.531 70.9434L190.531 70.9434L190.873 71.8831ZM203.6 79.5189L202.73 79.0265L202.261 79.8553L203.066 80.3641L203.6 79.5189ZM203.009 94.4114L203.505 95.2798L203.505 95.2798L203.009 94.4114ZM136.808 107.576L135.841 107.833L136.072 108.701L136.96 108.565L136.808 107.576ZM135.564 103.973L135.032 103.126L134.308 103.581L134.645 104.367L135.564 103.973ZM17.9417 81.7513L18.292 82.6879L19.1839 82.3544L18.8944 81.4473L17.9417 81.7513ZM27.9671 70.723L28.1454 69.739H28.1454L27.9671 70.723ZM87.2357 103.247L88.1424 103.669L88.52 102.857L87.7546 102.393L87.2357 103.247ZM85.8958 106.767L85.7589 107.757L86.6072 107.875L86.8535 107.055L85.8958 106.767ZM22.7825 95.7816L22.4405 96.7212L22.4405 96.7213L22.7825 95.7816ZM171.643 47.0843L171 46.3182L171 46.3183L171.643 47.0843ZM186.214 49.9056L185.228 49.7406L185.071 50.6798L186.001 50.8826L186.214 49.9056ZM190.752 64.1028L191.515 64.7492V64.7492L190.752 64.1028ZM132.899 99.1966L132.081 99.7716L132.595 100.504L133.38 100.073L132.899 99.1966ZM130.537 96.2943L129.748 95.6804L129.223 96.3551L129.808 96.9784L130.537 96.2943ZM34.8655 51.8743L34.8743 52.8743L35.8265 52.8659L35.8647 51.9145L34.8655 51.8743ZM48.0579 44.9398L48.562 44.0761L48.562 44.0761L48.0579 44.9398ZM92.5433 95.6673L93.2498 96.3749L93.8847 95.7411L93.3232 95.0414L92.5433 95.6673ZM90.0384 98.556L89.5708 99.4399L90.3268 99.8398L90.8391 99.155L90.0384 98.556ZM34.6165 66.7142L33.9737 67.4802L33.9738 67.4802L34.6165 66.7142ZM144.999 30.4466L144.133 29.9466V29.9466L144.999 30.4466ZM159.658 28.1155L158.674 28.2979L158.848 29.234L159.791 29.1065L159.658 28.1155ZM168.777 39.9036L169.715 40.2501V40.25L168.777 39.9036ZM126.388 92.6985L125.815 93.5179L126.549 94.0315L127.14 93.3581L126.388 92.6985ZM123.193 90.7816L122.241 90.4748L121.979 91.2872L122.74 91.6733L123.193 90.7816ZM60.8792 29.39L60.5455 30.3326L61.4431 30.6504L61.8044 29.7694L60.8792 29.39ZM75.6478 27.386L76.4168 26.7469L76.4168 26.7469L75.6478 27.386ZM100.134 90.3694L100.554 91.2769L101.37 90.8993L101.081 90.0482L100.134 90.3694ZM96.8255 92.2005L96.0839 92.8713L96.6561 93.5039L97.371 93.0386L96.8255 92.2005ZM55.5696 43.2493L54.7036 43.7493L54.7036 43.7493L55.5696 43.2493ZM114.251 24.2073L113.266 24.0337V24.0337L114.251 24.2073ZM127.228 17.0032L126.366 17.5108L126.85 18.3312L127.693 17.8886L127.228 17.0032ZM139.829 24.9612L140.829 24.9659V24.9659L139.829 24.9612ZM118.142 88.8441L117.882 89.8096L118.748 90.0433L119.074 89.2065L118.142 88.8441ZM114.387 88.1194L113.388 88.1565L113.419 89.0117L114.269 89.1125L114.387 88.1194ZM92.9173 17.5511L92.2813 18.3228L93.0161 18.9283L93.6569 18.2241L92.9173 17.5511ZM107.482 20.72L108.423 20.3825L108.423 20.3824L107.482 20.72ZM108.954 88.0306L109.04 89.0269L109.935 88.9504L109.954 88.0523L108.954 88.0306ZM105.122 88.6439L104.196 89.0203L104.519 89.8143L105.353 89.617L105.122 88.6439ZM83.1878 28.7591L82.203 28.9327V28.9327L83.1878 28.7591ZM200.569 105.002V106.002C204.909 106.002 208.827 106.697 210.741 107.668C211.211 107.907 211.483 108.125 211.616 108.288C211.678 108.364 211.696 108.41 211.701 108.425C211.704 108.435 211.704 108.437 211.702 108.445C211.696 108.476 211.639 108.653 211.277 108.95C210.923 109.24 210.359 109.577 209.518 109.941L209.916 110.859L210.314 111.776C211.247 111.372 211.994 110.948 212.544 110.497C213.086 110.053 213.526 109.509 213.661 108.846C213.807 108.136 213.561 107.506 213.162 107.019C212.782 106.556 212.239 106.186 211.646 105.885C209.308 104.698 205.008 104.002 200.569 104.002V105.002ZM209.916 110.859L209.367 111.694C210.076 112.16 210.509 112.681 210.704 113.15C210.887 113.592 210.874 114.01 210.65 114.418C210.409 114.856 209.868 115.381 208.805 115.848C207.748 116.313 206.238 116.69 204.18 116.869L204.267 117.866L204.354 118.862C206.553 118.67 208.293 118.258 209.61 117.679C210.922 117.103 211.882 116.33 212.403 115.381C212.94 114.402 212.949 113.344 212.551 112.384C212.164 111.451 211.412 110.645 210.466 110.023L209.916 110.859ZM204.267 117.866L204.18 116.869C202.332 117.03 197.848 116.889 191.921 116.559C186.03 116.231 178.801 115.722 171.527 115.166C156.981 114.054 142.272 112.758 137.762 112.356L137.673 113.352L137.584 114.348C142.097 114.75 156.816 116.048 171.375 117.16C178.654 117.716 185.898 118.227 191.809 118.556C197.684 118.883 202.331 119.038 204.354 118.862L204.267 117.866ZM137.673 113.352L138.672 113.313C138.637 112.395 138.557 111.489 138.433 110.595L137.443 110.732L136.452 110.869C136.567 111.697 136.641 112.538 136.674 113.39L137.673 113.352ZM137.443 110.732L137.551 111.726C141.476 111.297 154.694 109.865 168.208 108.541C181.753 107.213 195.511 106.002 200.569 106.002V105.002V104.002C195.388 104.002 181.509 105.227 168.013 106.55C154.488 107.876 141.261 109.309 137.334 109.738L137.443 110.732ZM18.1087 105.065L18.1955 106.061C20.0668 105.898 24.6567 106.082 30.7191 106.482C36.7423 106.878 44.1243 107.48 51.512 108.129C66.286 109.426 81.0619 110.908 84.9914 111.306L85.0921 110.311L85.1928 109.316C81.2607 108.918 66.4744 107.435 51.6869 106.136C44.2937 105.487 36.8951 104.884 30.8506 104.486C24.8452 104.09 20.0801 103.889 18.0219 104.069L18.1087 105.065ZM85.0921 110.311L84.1039 110.158C83.9442 111.19 83.8443 112.239 83.8028 113.302L84.8021 113.341L85.8013 113.38C85.8399 112.391 85.9327 111.418 86.0803 110.464L85.0921 110.311ZM84.8021 113.341L84.7148 112.345C76.4703 113.067 31.9337 116.928 21.8079 116.928L21.8079 117.928L21.8079 118.928C32.0478 118.928 76.7158 115.053 84.8893 114.337L84.8021 113.341ZM21.8079 117.928L21.8079 116.928C17.4678 116.928 13.5492 116.234 11.6355 115.262C11.1653 115.023 10.8935 114.805 10.7598 114.642C10.6976 114.567 10.6797 114.52 10.6752 114.505C10.6723 114.495 10.6724 114.494 10.6741 114.485C10.6804 114.454 10.7366 114.277 11.0993 113.98C11.4529 113.69 12.017 113.354 12.8574 112.989L12.4593 112.072L12.0612 111.154C11.1291 111.559 10.3816 111.982 9.83135 112.433C9.29008 112.877 8.85015 113.422 8.71464 114.084C8.56947 114.794 8.81464 115.425 9.21371 115.911C9.59387 116.374 10.1371 116.744 10.73 117.045C13.0683 118.233 17.369 118.928 21.8079 118.928L21.8079 117.928ZM12.4593 112.072L13.0086 111.236C12.2999 110.77 11.8665 110.249 11.6721 109.78C11.4888 109.338 11.5022 108.92 11.7262 108.512C11.9667 108.074 12.5077 107.549 13.5704 107.082C14.6277 106.618 16.1372 106.24 18.1955 106.061L18.1087 105.065L18.0219 104.069C15.8224 104.26 14.0832 104.672 12.7659 105.251C11.4539 105.828 10.4943 106.6 9.97312 107.549C9.43555 108.528 9.42643 109.586 9.82472 110.547C10.2118 111.48 10.964 112.285 11.91 112.907L12.4593 112.072ZM190.873 71.8831L191.215 72.8228C195.2 71.3725 199.233 71.3211 201.63 72.4378C202.795 72.9808 203.496 73.7567 203.738 74.7224C203.987 75.7143 203.806 77.1239 202.73 79.0265L203.6 79.5189L204.47 80.0112C205.69 77.8556 206.097 75.9063 205.678 74.2364C205.254 72.5404 204.034 71.3517 202.474 70.625C199.422 69.2023 194.796 69.3912 190.531 70.9434L190.873 71.8831ZM203.6 79.5189L203.066 80.3641C205.105 81.6534 206.644 84.0302 206.836 86.5198C207.022 88.9275 205.958 91.5755 202.513 93.5431L203.009 94.4114L203.505 95.2798C207.562 92.9625 209.081 89.6102 208.83 86.3658C208.586 83.2034 206.669 80.2764 204.134 78.6736L203.6 79.5189ZM203.009 94.4114L202.513 93.5431C201.772 93.9662 200.338 94.4903 198.281 95.084C196.252 95.6693 193.702 96.2992 190.79 96.9532C184.968 98.2608 177.745 99.6549 170.451 100.971C155.865 103.602 141.037 105.914 136.656 106.588L136.808 107.576L136.96 108.565C141.346 107.89 156.195 105.575 170.806 102.939C178.11 101.621 185.365 100.221 191.228 98.9046C194.159 98.2464 196.752 97.6065 198.835 97.0056C200.889 96.4131 202.534 95.8345 203.505 95.2798L203.009 94.4114ZM136.808 107.576L137.774 107.32C137.432 106.033 137 104.784 136.483 103.579L135.564 103.973L134.645 104.367C135.124 105.484 135.525 106.641 135.841 107.833L136.808 107.576ZM135.564 103.973L136.096 104.82C139.7 102.556 151.133 95.4074 162.856 88.3911C168.718 84.8826 174.646 81.4108 179.702 78.6007C184.783 75.7772 188.914 73.6603 191.215 72.8228L190.873 71.8831L190.531 70.9434C188.057 71.844 183.789 74.0411 178.731 76.8526C173.648 79.6776 167.699 83.1617 161.829 86.675C150.088 93.7022 138.641 100.86 135.032 103.126L135.564 103.973ZM17.9417 81.7513L18.8944 81.4473C18.1609 79.1488 18.5096 76.3387 19.9626 74.308C21.3678 72.3441 23.885 70.9997 27.7888 71.7069L27.9671 70.723L28.1454 69.739C23.5477 68.906 20.2295 70.4979 18.3361 73.1442C16.4904 75.7237 16.0772 79.1979 16.989 82.0553L17.9417 81.7513ZM27.9671 70.723L27.7888 71.7069C28.6321 71.8597 30.0759 72.3838 32.0458 73.2579C33.9878 74.1197 36.3612 75.2847 39.028 76.6647C44.3602 79.4238 50.8258 83.0211 57.2859 86.7184C70.2039 94.1119 83.0641 101.885 86.7167 104.102L87.2357 103.247L87.7546 102.393C84.0975 100.172 71.22 92.389 58.2794 84.9826C51.8101 81.2801 45.3162 77.6666 39.9471 74.8884C37.2633 73.4996 34.8505 72.3144 32.857 71.4298C30.8914 70.5576 29.2504 69.9392 28.1454 69.739L27.9671 70.723ZM87.2357 103.247L86.3289 102.826C85.7825 104.001 85.3162 105.221 84.9381 106.479L85.8958 106.767L86.8535 107.055C87.2037 105.889 87.6358 104.758 88.1424 103.669L87.2357 103.247ZM85.8958 106.767L86.0327 105.776C81.9705 105.215 68.5991 103.343 55.0468 101.175C48.2701 100.091 41.4547 98.9344 35.7382 97.8315C29.9943 96.7233 25.4366 95.6834 23.1245 94.8419L22.7825 95.7816L22.4405 96.7213C24.9261 97.6259 29.6403 98.6918 35.3594 99.7953C41.106 100.904 47.945 102.065 54.731 103.15C68.3042 105.321 81.6918 107.195 85.7589 107.757L85.8958 106.767ZM22.7825 95.7816L23.1246 94.8419C19.1398 93.3915 16.017 90.8382 14.8994 88.4426C14.3559 87.2775 14.317 86.232 14.7525 85.3366C15.1998 84.417 16.2446 83.4536 18.292 82.6879L17.9417 81.7513L17.5914 80.8146C15.2717 81.6822 13.7069 82.9138 12.9539 84.4619C12.1892 86.0343 12.3597 87.7292 13.0869 89.2881C14.5109 92.3403 18.1757 95.169 22.4405 96.7212L22.7825 95.7816ZM171.643 47.0843L172.286 47.8503C175.534 45.1246 179.307 43.6966 181.94 43.9262C183.221 44.0379 184.146 44.5268 184.704 45.3515C185.276 46.1984 185.588 47.5848 185.228 49.7406L186.214 49.9056L187.2 50.0705C187.609 47.6279 187.325 45.657 186.36 44.2311C185.381 42.7828 183.828 42.0832 182.114 41.9337C178.759 41.6412 174.477 43.401 171 46.3182L171.643 47.0843ZM186.214 49.9056L186.001 50.8826C188.358 51.3966 190.618 53.1038 191.65 55.3778C192.648 57.5769 192.554 60.4293 189.989 63.4565L190.752 64.1028L191.515 64.7492C194.536 61.1839 194.816 57.5142 193.471 54.5511C192.16 51.6628 189.358 49.5676 186.427 48.9285L186.214 49.9056ZM190.752 64.1028L189.989 63.4565C189.434 64.112 188.254 65.1034 186.506 66.3764C184.782 67.6313 182.578 69.1089 180.041 70.7336C174.967 73.982 168.598 77.7941 162.15 81.5481C149.257 89.0549 136.085 96.3092 132.418 98.3197L132.899 99.1966L133.38 100.073C137.051 98.0604 150.241 90.7964 163.156 83.2765C169.613 79.5172 176.011 75.6887 181.119 72.4179C183.673 70.783 185.914 69.2813 187.683 67.9932C189.427 66.7232 190.788 65.608 191.515 64.7492L190.752 64.1028ZM132.899 99.1966L133.717 98.6216C132.971 97.5601 132.152 96.5538 131.267 95.6101L130.537 96.2943L129.808 96.9784C130.629 97.8537 131.389 98.7869 132.081 99.7716L132.899 99.1966ZM130.537 96.2943L131.327 96.9081C133.795 93.7338 142.106 83.0829 150.778 72.4052C155.114 67.0658 159.537 61.725 163.362 57.311C167.206 52.8757 170.396 49.4359 172.286 47.8503L171.643 47.0843L171 46.3183C168.969 48.0227 165.678 51.5852 161.851 56.0011C158.006 60.4383 153.568 65.7977 149.226 71.1443C140.54 81.8384 132.219 92.5024 129.748 95.6804L130.537 96.2943ZM34.8655 51.8743L35.8647 51.9145C35.9617 49.5038 37.2504 46.9825 39.3103 45.5712C41.3023 44.2063 44.1275 43.8038 47.5539 45.8034L48.0579 44.9398L48.562 44.0761C44.5265 41.7211 40.8641 42.0821 38.1798 43.9213C35.5633 45.714 33.9868 48.8373 33.8663 51.8342L34.8655 51.8743ZM48.0579 44.9398L47.5539 45.8034C48.2899 46.233 49.4591 47.2112 50.9999 48.694C52.519 50.1558 54.337 52.0463 56.3565 54.2376C60.3942 58.6188 65.2066 64.1689 69.9885 69.8214C79.5507 81.1245 88.9645 92.8055 91.7634 96.2932L92.5433 95.6673L93.3232 95.0414C90.5211 91.5497 81.0945 79.8527 71.5154 68.5297C66.7267 62.8691 61.8932 57.2942 57.8272 52.8822C55.7947 50.6768 53.9464 48.7538 52.3867 47.2529C50.8489 45.7729 49.5271 44.6393 48.562 44.0761L48.0579 44.9398ZM92.5433 95.6673L91.8367 94.9597C90.9009 95.894 90.0317 96.8956 89.2377 97.9569L90.0384 98.556L90.8391 99.155C91.5753 98.171 92.3815 97.242 93.2498 96.3749L92.5433 95.6673ZM90.0384 98.556L90.506 97.672C86.7144 95.6665 74.8109 89.3416 62.8855 82.7038C56.9222 79.3846 50.9593 75.9904 46.0049 73.0207C41.0266 70.0368 37.1333 67.5205 35.2593 65.9481L34.6165 66.7142L33.9738 67.4802C35.9889 69.1711 40.0196 71.765 44.9766 74.7362C49.9575 77.7216 55.9413 81.1275 61.9128 84.4513C73.8568 91.0994 85.775 97.4321 89.5708 99.4399L90.0384 98.556ZM34.6165 66.7142L35.2593 65.9481C32.0108 63.2224 29.9495 59.755 29.7185 57.1215C29.6061 55.8408 29.9272 54.8451 30.6425 54.1527C31.3772 53.4415 32.6885 52.8935 34.8743 52.8743L34.8655 51.8743L34.8567 50.8744C32.3802 50.8962 30.4885 51.5183 29.2515 52.7156C27.9952 53.9316 27.5758 55.5826 27.7261 57.2963C28.0205 60.6514 30.497 64.5629 33.9737 67.4802L34.6165 66.7142ZM144.999 30.4466L145.865 30.9466C147.986 27.2742 151.042 24.6423 153.596 23.9576C154.838 23.6246 155.874 23.7679 156.68 24.3522C157.508 24.9524 158.276 26.1486 158.674 28.2979L159.658 28.1155L160.641 27.9332C160.189 25.4981 159.248 23.7432 157.854 22.7329C156.438 21.7067 154.74 21.5803 153.078 22.0258C149.825 22.8981 146.403 26.0161 144.133 29.9466L144.999 30.4466ZM159.658 28.1155L159.791 29.1065C162.182 28.7835 164.889 29.6149 166.636 31.3984C168.326 33.1232 169.213 35.8356 167.839 39.5572L168.777 39.9036L169.715 40.25C171.333 35.867 170.342 32.323 168.065 29.9987C165.845 27.7332 162.496 26.7229 159.524 27.1245L159.658 28.1155ZM168.777 39.9036L167.839 39.5572C167.54 40.3645 166.769 41.7028 165.558 43.5012C164.364 45.2741 162.794 47.4215 160.961 49.8215C157.295 54.6203 152.603 60.3935 147.819 66.1355C138.254 77.6177 128.352 88.9441 125.636 92.039L126.388 92.6985L127.14 93.3581C129.859 90.2594 139.774 78.9178 149.356 67.4156C154.146 61.6655 158.859 55.8674 162.55 51.0357C164.395 48.6204 165.992 46.4377 167.217 44.6181C168.425 42.8241 169.324 41.3075 169.715 40.2501L168.777 39.9036ZM126.388 92.6985L126.961 91.8792C125.908 91.1422 124.801 90.4761 123.645 89.8898L123.193 90.7816L122.74 91.6733C123.81 92.2163 124.837 92.8338 125.815 93.5179L126.388 92.6985ZM123.193 90.7816L124.144 91.0883C125.363 87.3083 129.531 74.4517 134.033 61.4331C136.285 54.9232 138.618 48.3792 140.707 42.912C142.806 37.4185 144.63 33.0857 145.865 30.9466L144.999 30.4466L144.133 29.9466C142.806 32.246 140.928 36.7287 138.839 42.1982C136.739 47.6941 134.398 54.2607 132.143 60.7793C127.634 73.8179 123.461 86.6902 122.241 90.4748L123.193 90.7816ZM60.8792 29.39L61.8044 29.7694C62.72 27.5372 64.7933 25.6088 67.2116 24.9872C69.5504 24.386 72.3428 24.9742 74.8787 28.0252L75.6478 27.386L76.4168 26.7469C73.4302 23.1535 69.8652 22.24 66.7137 23.0501C63.6418 23.8398 61.0922 26.2355 59.954 29.0105L60.8792 29.39ZM75.6478 27.386L74.8787 28.0252C75.4258 28.6835 76.1938 30.0106 77.1395 31.9429C78.0718 33.8479 79.1393 36.2615 80.2935 39.0279C82.6011 44.5591 85.238 51.4594 87.8074 58.4356C92.9454 72.3858 97.7996 86.6011 99.1871 90.6907L100.134 90.3694L101.081 90.0482C99.6919 85.9536 94.8311 71.719 89.6841 57.7444C87.1111 50.7583 84.463 43.8275 82.1393 38.2578C80.9778 35.4737 79.893 33.0193 78.9359 31.0638C77.9922 29.1355 77.1338 27.6095 76.4168 26.7469L75.6478 27.386ZM100.134 90.3694L99.7139 89.462C98.52 90.0148 97.3731 90.6509 96.28 91.3624L96.8255 92.2005L97.371 93.0386C98.3849 92.3787 99.4481 91.7891 100.554 91.2769L100.134 90.3694ZM96.8255 92.2005L97.5671 91.5297C94.7764 88.4443 85.7421 78.4195 76.7703 68.0649C72.284 62.8872 67.8177 57.6321 64.157 53.1234C60.4787 48.5931 57.6637 44.8763 56.4357 42.7493L55.5696 43.2493L54.7036 43.7493C56.0239 46.0361 58.9419 49.8732 62.6043 54.3841C66.2843 58.9165 70.7663 64.1898 75.2588 69.3746C84.2445 79.7452 93.2898 89.7822 96.0839 92.8713L96.8255 92.2005ZM55.5696 43.2493L56.4357 42.7493C54.3154 39.0769 53.5643 35.1137 54.2479 32.5601C54.5803 31.3183 55.2226 30.4925 56.1316 30.0865C57.0653 29.6695 58.4849 29.6031 60.5455 30.3326L60.8792 29.39L61.2129 28.4473C58.8783 27.6207 56.8879 27.5584 55.3161 28.2603C53.7196 28.9733 52.7608 30.3812 52.3159 32.0429C51.445 35.2963 52.4343 39.8189 54.7036 43.7493L55.5696 43.2493ZM114.251 24.2073L115.236 24.381C115.972 20.2049 117.945 16.686 120.11 15.1693C121.163 14.4316 122.186 14.2118 123.143 14.4851C124.126 14.7659 125.257 15.6275 126.366 17.5108L127.228 17.0032L128.089 16.4956C126.832 14.3618 125.348 13.0346 123.692 12.562C122.011 12.082 120.371 12.5442 118.962 13.5312C116.204 15.4636 114.055 19.5641 113.266 24.0337L114.251 24.2073ZM127.228 17.0032L127.693 17.8886C129.829 16.7672 132.657 16.6227 134.909 17.701C137.087 18.7438 138.848 20.9893 138.829 24.9566L139.829 24.9612L140.829 24.9659C140.851 20.2935 138.707 17.3023 135.773 15.8971C132.912 14.5274 129.419 14.7237 126.763 16.1178L127.228 17.0032ZM139.829 24.9612L138.829 24.9565C138.825 25.8086 138.563 27.3097 138.049 29.3848C137.543 31.4305 136.815 33.9494 135.928 36.7929C134.153 42.4784 131.753 49.4189 129.249 56.3847C124.243 70.314 118.834 84.3059 117.21 88.4816L118.142 88.8441L119.074 89.2065C120.7 85.026 126.116 71.015 131.132 57.0612C133.639 50.0854 136.049 43.1142 137.837 37.3889C138.73 34.527 139.471 31.9657 139.991 29.8652C140.503 27.7941 140.824 26.0831 140.829 24.9659L139.829 24.9612ZM118.142 88.8441L118.402 87.8785C117.137 87.5374 115.835 87.2842 114.505 87.1264L114.387 88.1194L114.269 89.1125C115.503 89.2588 116.709 89.4934 117.882 89.8096L118.142 88.8441ZM114.387 88.1194L115.386 88.0824C115.227 83.7888 114.753 70.3183 114.539 56.6745C114.431 49.852 114.389 42.993 114.484 37.2192C114.579 31.4177 114.811 26.7895 115.236 24.381L114.251 24.2073L113.266 24.0337C112.81 26.6237 112.579 31.4097 112.484 37.1865C112.389 42.9909 112.432 49.8741 112.539 56.7059C112.753 70.3709 113.228 83.858 113.388 88.1565L114.387 88.1194ZM92.9173 17.5511L93.6569 18.2241C95.2807 16.4397 97.8888 15.3368 100.374 15.5799C102.778 15.8151 105.201 17.3231 106.54 21.0576L107.482 20.72L108.423 20.3824C106.846 15.9841 103.808 13.9063 100.569 13.5894C97.412 13.2806 94.1964 14.6596 92.1777 16.8781L92.9173 17.5511ZM107.482 20.72L106.54 21.0576C106.827 21.8555 107.092 23.345 107.319 25.4547C107.542 27.5345 107.719 30.1306 107.858 33.0845C108.135 38.9906 108.255 46.2825 108.286 53.6465C108.349 68.372 108.056 83.3448 107.955 88.0089L108.954 88.0306L109.954 88.0523C110.056 83.3829 110.349 68.3897 110.286 53.638C110.255 46.2633 110.134 38.9388 109.856 32.9908C109.716 30.0176 109.537 27.3772 109.307 25.2412C109.081 23.135 108.798 21.4292 108.423 20.3825L107.482 20.72ZM108.954 88.0306L108.869 87.0342C107.513 87.1501 106.185 87.3648 104.892 87.6707L105.122 88.6439L105.353 89.617C106.551 89.3334 107.782 89.1345 109.04 89.0269L108.954 88.0306ZM105.122 88.6439L106.049 88.2674C104.368 84.1323 99.3262 71.6549 94.4859 58.9711C92.0655 52.6286 89.698 46.2408 87.8272 40.8215C85.9474 35.3761 84.595 30.9811 84.1726 28.5854L83.1878 28.7591L82.203 28.9327C82.6573 31.5093 84.0648 36.0517 85.9367 41.4741C87.8176 46.9225 90.1936 53.3329 92.6173 59.6842C97.4652 72.3879 102.514 84.8807 104.196 89.0203L105.122 88.6439ZM83.1878 28.7591L84.1726 28.5854C83.4362 24.4094 84.086 20.4283 85.6017 18.2624C86.3389 17.2092 87.2248 16.6527 88.2179 16.5821C89.2378 16.5096 90.5946 16.9326 92.2813 18.3228L92.9173 17.5511L93.5533 16.7794C91.6422 15.2043 89.7932 14.465 88.076 14.5871C86.332 14.7112 84.9495 15.7063 83.9632 17.1157C82.032 19.8751 81.4149 24.4632 82.203 28.9327L83.1878 28.7591Z" fill="#7EFFCA" mask="url(#path-3-outside-1_4_737)"/>
<path d="M174.038 163.517V165.102H163.697V163.517L166.644 163.12C167.037 163.045 167.323 162.969 167.502 162.894C167.68 162.781 167.841 162.535 167.984 162.158C168.127 161.78 168.323 161.176 168.573 160.346L178.807 126.595H183.415L193.702 160.346C193.952 161.176 194.148 161.78 194.291 162.158C194.434 162.535 194.595 162.781 194.773 162.894C194.988 162.969 195.274 163.045 195.631 163.12L198.578 163.517V165.102H183.79V163.517L186.737 163.12C187.308 163.045 187.612 162.894 187.647 162.667C187.719 162.403 187.558 161.629 187.165 160.346L185.129 153.324H172.752L170.663 160.346C170.306 161.629 170.145 162.403 170.18 162.667C170.216 162.894 170.52 163.045 171.091 163.12L174.038 163.517ZM173.395 151.342H184.54L179.021 132.541L173.395 151.342Z" fill="white"/>
<path d="M133.017 139.627V138.131H143.273V151.481L152.675 142.507C153.921 141.332 154.58 140.62 154.651 140.37C154.758 140.121 154.508 139.961 153.903 139.89L150.965 139.516V138.02H161.916V139.516L158.978 139.89C158.657 139.925 158.39 139.997 158.176 140.103C157.963 140.21 157.66 140.442 157.268 140.798C156.877 141.118 156.253 141.688 155.399 142.507L150.271 147.421L157.856 160.615C158.354 161.434 158.728 162.022 158.978 162.378C159.227 162.699 159.458 162.912 159.672 163.019C159.921 163.09 160.224 163.162 160.58 163.233L162.402 163.607V165.102H153.316L145.891 151.588L143.273 154.099V160.615C143.273 161.826 143.327 162.556 143.433 162.805C143.54 163.019 143.879 163.162 144.448 163.233L147.386 163.607V165.102H133.017V163.607L135.955 163.233C136.525 163.162 136.863 163.019 136.97 162.805C137.077 162.556 137.13 161.826 137.13 160.615V142.618C137.13 141.407 137.077 140.695 136.97 140.481C136.863 140.232 136.525 140.072 135.955 140.001L133.017 139.627Z" fill="white"/>
<path d="M116.959 139.516V138.02H127.215V160.615C127.215 161.826 127.269 162.556 127.376 162.806C127.482 163.019 127.821 163.162 128.39 163.233L131.328 163.607V165.102H116.959V163.607L119.897 163.233C120.467 163.162 120.805 163.019 120.912 162.806C121.019 162.556 121.072 161.826 121.072 160.615V142.507C121.072 141.296 121.019 140.584 120.912 140.371C120.805 140.121 120.467 139.961 119.897 139.89L116.959 139.516Z" fill="white"/>
<path d="M115.14 163.607V165.102H100.771V163.607L103.709 163.233C104.279 163.162 104.617 163.019 104.724 162.805C104.831 162.556 104.885 161.826 104.885 160.615V147.154C104.885 144.697 104.511 142.917 103.763 141.813C103.051 140.673 101.982 140.103 100.558 140.103C99.9524 140.103 99.2401 140.264 98.4211 140.584C97.6376 140.869 96.8364 141.403 96.0173 142.187C95.2339 142.97 94.5395 144.127 93.9341 145.659V160.615C93.9341 161.826 93.9875 162.556 94.0943 162.805C94.2012 163.019 94.5395 163.162 95.1093 163.233L98.0472 163.607V165.102H83.6781V163.607L86.616 163.233C87.1858 163.162 87.5241 163.019 87.6309 162.805C87.7378 162.556 87.7912 161.826 87.7912 160.615V142.507C87.7912 141.296 87.7378 140.584 87.6309 140.371C87.5241 140.121 87.1858 139.961 86.616 139.89L83.6781 139.516V138.02H93.6136V142.721C94.6463 140.905 95.9639 139.587 97.5664 138.768C99.2045 137.913 100.843 137.486 102.481 137.486C105.116 137.486 107.199 138.323 108.73 139.997C110.262 141.67 111.027 144.038 111.027 147.101V160.615C111.027 161.826 111.081 162.556 111.188 162.805C111.294 163.019 111.633 163.162 112.203 163.233L115.14 163.607Z" fill="white"/>
<path d="M60.1204 139.516V138.02H70.0559V142.4C72.2281 139.124 74.8099 137.486 77.8013 137.486C78.9052 137.486 79.9735 137.842 81.0063 138.554C82.039 139.231 82.8936 140.513 83.5703 142.4L78.8162 144.964C78.3176 143.504 77.73 142.525 77.0534 142.026C76.4124 141.492 75.718 141.225 74.9702 141.225C74.1867 141.225 73.4211 141.474 72.6733 141.973C71.9254 142.472 71.1598 143.397 70.3764 144.751V160.615C70.3764 161.826 70.4298 162.556 70.5366 162.805C70.6434 163.019 70.9817 163.162 71.5515 163.233L75.5578 163.607V165.102H60.1204V163.607L63.0583 163.233C63.6281 163.162 63.9664 163.019 64.0732 162.805C64.18 162.556 64.2334 161.826 64.2334 160.615V142.507C64.2334 141.296 64.18 140.584 64.0732 140.371C63.9664 140.121 63.6281 139.961 63.0583 139.89L60.1204 139.516Z" fill="white"/>
<path d="M34.2384 163.517V165.102H23.8976V163.517L26.8444 163.12C27.2374 163.045 27.5231 162.969 27.7017 162.894C27.8803 162.781 28.0411 162.535 28.1839 162.158C28.3268 161.78 28.5233 161.176 28.7733 160.345L39.007 126.595H43.6148L53.902 160.345C54.1521 161.176 54.3485 161.78 54.4914 162.158C54.6343 162.535 54.795 162.781 54.9736 162.894C55.1879 162.969 55.4737 163.045 55.8309 163.12L58.7778 163.517V165.102H43.9899V163.517L46.9367 163.12C47.5082 163.045 47.8119 162.894 47.8476 162.667C47.919 162.403 47.7583 161.629 47.3654 160.345L45.3293 153.323H32.9525L30.8629 160.345C30.5057 161.629 30.345 162.403 30.3807 162.667C30.4164 162.894 30.72 163.045 31.2915 163.12L34.2384 163.517ZM33.5955 151.341H44.74L39.2213 132.541L33.5955 151.341Z" fill="white"/>
<path d="M170.04 193.741V182.982H174.284C175.097 182.982 175.79 183.127 176.365 183.418C176.943 183.705 177.382 184.113 177.683 184.642C177.988 185.167 178.141 185.786 178.141 186.497C178.141 187.211 177.986 187.826 177.678 188.341C177.37 188.852 176.923 189.244 176.339 189.517C175.757 189.79 175.053 189.927 174.227 189.927H171.385V188.099H173.859C174.293 188.099 174.654 188.039 174.941 187.92C175.228 187.801 175.442 187.623 175.582 187.384C175.726 187.146 175.797 186.85 175.797 186.497C175.797 186.139 175.726 185.838 175.582 185.593C175.442 185.348 175.227 185.162 174.936 185.036C174.649 184.907 174.286 184.842 173.848 184.842H172.314V193.741H170.04ZM175.85 188.845L178.524 193.741H176.013L173.397 188.845H175.85Z" fill="white"/>
<path d="M160.685 193.741V182.982H167.935V184.857H162.96V187.421H167.562V189.297H162.96V191.866H167.956V193.741H160.685Z" fill="white"/>
<path d="M150.098 184.857V182.982H158.934V184.857H155.64V193.741H153.392V184.857H150.098Z" fill="white"/>
<path d="M148.333 182.982V193.741H146.368L141.687 186.969H141.608V193.741H139.333V182.982H141.33L145.974 189.748H146.068V182.982H148.333Z" fill="white"/>
<path d="M129.979 193.741V182.982H137.229V184.857H132.254V187.421H136.856V189.297H132.254V191.866H137.25V193.741H129.979Z" fill="white"/>
<path d="M128.052 186.749H125.751C125.709 186.451 125.624 186.187 125.494 185.955C125.364 185.721 125.198 185.521 124.995 185.356C124.792 185.192 124.557 185.066 124.291 184.978C124.028 184.891 123.743 184.847 123.435 184.847C122.878 184.847 122.393 184.985 121.979 185.262C121.566 185.535 121.246 185.934 121.018 186.46C120.79 186.982 120.677 187.615 120.677 188.361C120.677 189.128 120.79 189.773 121.018 190.295C121.249 190.817 121.571 191.211 121.985 191.477C122.398 191.743 122.876 191.876 123.419 191.876C123.724 191.876 124.005 191.836 124.265 191.755C124.527 191.675 124.76 191.557 124.963 191.403C125.166 191.246 125.335 191.055 125.468 190.831C125.604 190.606 125.699 190.351 125.751 190.064L128.052 190.074C127.993 190.568 127.844 191.044 127.606 191.503C127.371 191.958 127.054 192.366 126.655 192.727C126.259 193.084 125.786 193.368 125.237 193.578C124.69 193.785 124.072 193.888 123.382 193.888C122.422 193.888 121.564 193.671 120.808 193.237C120.055 192.802 119.459 192.174 119.022 191.351C118.587 190.528 118.37 189.531 118.37 188.361C118.37 187.188 118.591 186.19 119.032 185.367C119.473 184.544 120.072 183.917 120.829 183.486C121.585 183.052 122.436 182.835 123.382 182.835C124.005 182.835 124.583 182.922 125.116 183.098C125.652 183.273 126.126 183.528 126.539 183.865C126.953 184.197 127.289 184.605 127.548 185.089C127.811 185.572 127.979 186.125 128.052 186.749Z" fill="white"/>
<path d="M106.15 193.741V182.982H108.424V191.866H113.037V193.741H106.15Z" fill="white"/>
<path d="M96.6418 193.741H94.2042L97.9184 182.982H100.85L104.559 193.741H102.121L99.4262 185.441H99.3421L96.6418 193.741ZM96.4895 189.512H102.247V191.288H96.4895V189.512Z" fill="white"/>
<path d="M93.0628 186.749H90.7618C90.7198 186.451 90.6339 186.187 90.5044 185.955C90.3748 185.721 90.2084 185.521 90.0053 185.356C89.8022 185.192 89.5675 185.066 89.3013 184.978C89.0387 184.891 88.7532 184.847 88.445 184.847C87.8881 184.847 87.4031 184.985 86.9898 185.262C86.5765 185.535 86.2561 185.934 86.0284 186.46C85.8008 186.982 85.6869 187.615 85.6869 188.361C85.6869 189.128 85.8008 189.773 86.0284 190.295C86.2596 190.817 86.5818 191.211 86.9951 191.477C87.4083 191.743 87.8864 191.876 88.4293 191.876C88.734 191.876 89.0159 191.836 89.2751 191.755C89.5377 191.675 89.7706 191.557 89.9738 191.403C90.1769 191.246 90.345 191.055 90.4781 190.831C90.6147 190.606 90.7093 190.351 90.7618 190.064L93.0628 190.074C93.0033 190.568 92.8544 191.044 92.6163 191.503C92.3816 191.958 92.0646 192.366 91.6654 192.727C91.2696 193.084 90.7968 193.368 90.2469 193.578C89.7006 193.785 89.0824 193.888 88.3925 193.888C87.4328 193.888 86.5748 193.671 85.8183 193.237C85.0653 192.802 84.4699 192.174 84.0321 191.351C83.5978 190.528 83.3807 189.531 83.3807 188.361C83.3807 187.188 83.6013 186.19 84.0426 185.367C84.4839 184.544 85.0828 183.917 85.8393 183.486C86.5958 183.052 87.4469 182.835 88.3925 182.835C89.0159 182.835 89.5938 182.922 90.1261 183.098C90.662 183.273 91.1365 183.528 91.5498 183.865C91.9631 184.197 92.2993 184.605 92.5585 185.089C92.8211 185.572 92.9893 186.125 93.0628 186.749Z" fill="white"/>
<path d="M81.4021 182.982V193.741H79.1274V182.982H81.4021Z" fill="white"/>
<path d="M71.8828 193.741H68.0688V182.982H71.9143C72.9965 182.982 73.9281 183.197 74.7092 183.628C75.4902 184.055 76.0908 184.67 76.5111 185.472C76.9349 186.274 77.1468 187.234 77.1468 188.351C77.1468 189.472 76.9349 190.435 76.5111 191.24C76.0908 192.046 75.4867 192.664 74.6987 193.095C73.9141 193.526 72.9755 193.741 71.8828 193.741ZM70.3435 191.792H71.7882C72.4607 191.792 73.0263 191.673 73.4851 191.435C73.9474 191.193 74.2941 190.82 74.5253 190.316C74.7599 189.808 74.8773 189.153 74.8773 188.351C74.8773 187.556 74.7599 186.906 74.5253 186.402C74.2941 185.898 73.9492 185.526 73.4904 185.288C73.0316 185.05 72.4659 184.931 71.7935 184.931H70.3435V191.792Z" fill="white"/>
<path d="M58.7146 193.741V182.982H65.9644V184.857H60.9893V187.421H65.5914V189.297H60.9893V191.866H65.9854V193.741H58.7146Z" fill="white"/>
<path d="M44.8819 182.982H47.6872L50.6502 190.211H50.7763L53.7392 182.982H56.5446V193.741H54.3381V186.738H54.2488L51.4645 193.689H49.962L47.1777 186.712H47.0883V193.741H44.8819V182.982Z" fill="white"/>
<g filter="url(#filter0_d_4_737)">
<path d="M111.237 87.0524C125.697 87.0524 137.509 98.6423 138.265 113.229H136.223C135.469 99.793 124.572 89.1345 111.237 89.1345C97.9029 89.1347 87.0063 99.7931 86.2528 113.229H84.2108C84.9667 98.6425 96.7775 87.0526 111.237 87.0524Z" fill="#FF8800"/>
</g>
<defs>
<filter id="filter0_d_4_737" x="69.2108" y="72.0524" width="84.0537" height="56.1768" filterUnits="userSpaceOnUse" color-interpolation-filters="sRGB">
<feFlood flood-opacity="0" result="BackgroundImageFix"/>
<feColorMatrix in="SourceAlpha" type="matrix" values="0 0 0 0 0 0 0 0 0 0 0 0 0 0 0 0 0 0 127 0" result="hardAlpha"/>
<feOffset/>
<feGaussianBlur stdDeviation="7.5"/>
<feComposite in2="hardAlpha" operator="out"/>
<feColorMatrix type="matrix" values="0 0 0 0 0.494118 0 0 0 0 1 0 0 0 0 0.792157 0 0 0 1 0"/>
<feBlend mode="normal" in2="BackgroundImageFix" result="effect1_dropShadow_4_737"/>
<feBlend mode="normal" in="SourceGraphic" in2="effect1_dropShadow_4_737" result="shape"/>
</filter>
<radialGradient id="paint0_radial_4_737" cx="0" cy="0" r="1" gradientUnits="userSpaceOnUse" gradientTransform="translate(111.238 111.238) rotate(90) scale(111.238 111.238)">
<stop stop-color="#00E385"/>
<stop offset="1" stop-color="#007D49"/>
</radialGradient>
</defs>
</svg>
